<?xml version="1.0" ?>
<!DOCTYPE svg  PUBLIC '-//W3C//DTD SVG 1.1//EN'  'http://www.w3.org/Graphics/SVG/1.1/DTD/svg11.dtd'>
<!-- Uploaded to: SVG Repo, www.svgrepo.com, Generator: SVG Repo Mixer Tools -->
<svg fill="#000000" width="800px" height="800px" viewBox="0 0 64 64" enable-background="new 0 0 64 64" id="Layer_1" version="1.1" xml:space="preserve" xmlns="http://www.w3.org/2000/svg" xmlns:xlink="http://www.w3.org/1999/xlink">
<g>
<path d="M23.366,48.843c-3.598,0.001-7.246-1.884-7.258-5.486c-0.011-3.54-0.096-6.475-0.187-9.582   c-0.04-1.366-0.081-2.779-0.118-4.315c-0.133-5.476,2.093-8.376,6.615-8.62c2.577-0.138,6.881-0.228,10.965-0.228   c3.427,0,9.396,0.063,10.867,0.481c1.49,0.424,3.355,1.594,3.776,4.757c0.305,2.293,0.136,10.431,0.045,14.802   c-0.025,1.213-0.044,2.118-0.044,2.493c0.001,1.654-0.751,3.13-2.117,4.154c-1.346,1.01-3.225,1.544-5.435,1.544l-2.633-0.005   c-4.057-0.01-11.233-0.026-14.389,0.005C23.452,48.843,23.37,48.843,23.366,48.843z M33.384,22.611   c-4.051,0-8.313,0.088-10.857,0.226c-3.372,0.182-4.829,2.209-4.723,6.573c0.037,1.532,0.078,2.943,0.117,4.306   c0.091,3.121,0.177,6.068,0.188,9.635c0.009,2.545,3.229,3.492,5.258,3.492h0.069c3.158-0.031,10.348-0.016,14.412-0.005   l2.629,0.005c1.773,0,3.237-0.396,4.234-1.144c0.862-0.646,1.317-1.53,1.317-2.555c0-0.381,0.019-1.302,0.045-2.534   c0.083-4.011,0.257-12.356-0.028-14.497c-0.229-1.724-0.974-2.708-2.341-3.097C43.047,22.829,39.95,22.611,33.384,22.611z"/>
</g>
<g>
<path d="M19.718,23.525c-0.362,0-0.712-0.197-0.89-0.541c-0.253-0.491-0.061-1.094,0.43-1.348   c0.198-0.102,20.431-9.325,23.536-5.536c1.332,1.622,1.665,4.131,0.79,5.966c-0.237,0.499-0.832,0.712-1.332,0.473   c-0.499-0.237-0.711-0.834-0.473-1.332c0.53-1.114,0.292-2.835-0.53-3.837c-1.421-1.441-15.151,2.984-21.073,6.044   C20.029,23.489,19.872,23.525,19.718,23.525z"/>
</g>
<g>
<path d="M32.256,41.33c-0.029,0-0.059-0.001-0.088-0.001c-2.05-0.045-3.541-0.874-4.312-2.396   c-0.249-0.492-0.052-1.094,0.441-1.344c0.493-0.251,1.093-0.052,1.344,0.441c0.157,0.311,0.636,1.257,2.569,1.299   c0.016,0.001,0.03,0.001,0.045,0.001c0.932,0,1.75-0.64,1.956-1.536c0.275-1.196-1.031-2.162-1.919-2.489   c-0.294-0.109-0.608-0.183-0.923-0.259c-0.894-0.217-2.005-0.485-2.781-1.441c-1.366-1.687-0.84-4.247,0.509-5.581   c1.031-1.02,2.496-1.381,3.917-0.971c1.461,0.423,2.54,1.569,2.887,3.065c0.124,0.538-0.211,1.075-0.749,1.2   c-0.534,0.125-1.075-0.21-1.2-0.749c-0.181-0.78-0.739-1.377-1.493-1.596c-0.721-0.206-1.447-0.029-1.955,0.472   c-0.682,0.674-0.995,2.117-0.362,2.898c0.351,0.432,0.976,0.583,1.699,0.758c0.374,0.091,0.762,0.185,1.146,0.327   c1.961,0.724,3.682,2.61,3.175,4.813C35.747,40.043,34.113,41.33,32.256,41.33z"/>
</g>
<g>
<path d="M31.998,28.773c-0.004,0-0.007,0-0.011,0c-0.553-0.006-0.995-0.459-0.989-1.011c0.005-0.439,0.006-1.098,0-1.463   c-0.009-0.552,0.432-1.007,0.984-1.016c0.565-0.039,1.007,0.433,1.016,0.984c0.006,0.379,0.005,1.061,0,1.516   C32.992,28.333,32.546,28.773,31.998,28.773z"/>
</g>
<g>
<path d="M31.993,42.994c-0.003,0-0.007,0-0.01,0c-0.552-0.006-0.995-0.457-0.99-1.01c0.005-0.495,0.006-1.237,0-1.65   c-0.008-0.552,0.434-1.006,0.986-1.014c0.005,0,0.009,0,0.014,0c0.546,0,0.992,0.438,1,0.986c0.006,0.425,0.005,1.188,0,1.697   C32.987,42.553,32.541,42.994,31.993,42.994z"/>
</g>
</svg>